<svg viewBox="0 0 977.456 1066.744" xmlns="http://www.w3.org/2000/svg"><path d="m353.745 821.915c61.695 0 111.71 50.014 111.71 111.71s-50.015 111.708-111.71 111.708-111.71-50.014-111.71-111.71c0-61.694 50.015-111.708 111.71-111.708zm0 176.873c35.99 0 65.164-29.175 65.164-65.164s-29.176-65.164-65.165-65.164c-35.99 0-65.164 29.175-65.164 65.164 0 35.99 29.176 65.164 65.165 65.164zm446.837-176.873c61.695 0 111.71 50.014 111.71 111.71s-50.015 111.708-111.71 111.708-111.71-50.014-111.71-111.71c0-61.694 50.015-111.708 111.71-111.708zm0 176.873c35.99 0 65.164-29.175 65.164-65.164s-29.175-65.164-65.164-65.164c-35.99 0-65.164 29.175-65.164 65.164 0 35.99 29.175 65.164 65.164 65.164zm176.873-130.328h-777.31v-688.873c0-61.695-50.013-111.71-111.708-111.71h-88.437v-46.543h88.437c87.402 0 158.255 70.853 158.255 158.255v642.327h730.764zm-377.02-246.69h-46.544v-442.184h46.546zm-23.27 32.907-170.079-170.077 32.908-32.908 137.123 137.123 137.123-137.123 32.91 32.908z"/></svg>