<svg viewBox="0 0 1384.001 1045.437" xmlns="http://www.w3.org/2000/svg"><path d="M331.48 722.713c83.72 0 151.587 67.868 151.587 151.587S415.2 1025.887 331.48 1025.887c-83.72 0-151.587-67.868-151.587-151.587.107-83.676 67.91-151.48 151.577-151.587h.01zm0 240.275c48.98 0 88.688-39.707 88.688-88.688s-39.707-88.688-88.688-88.688c-48.98 0-88.688 39.707-88.688 88.688.072 48.952 39.736 88.616 88.68 88.688h.008zm720.826-240.275c83.72 0 151.587 67.868 151.587 151.587s-67.868 151.587-151.587 151.587c-83.72 0-151.587-67.868-151.587-151.587.106-83.676 67.91-151.48 151.576-151.587h.01zm0 240.275c48.98 0 88.688-39.707 88.688-88.688s-39.707-88.688-88.688-88.688c-48.98 0-88.688 39.707-88.688 88.688.072 48.952 39.736 88.616 88.68 88.688h.008zm331.48-57.24h-211.343V842.85h148.442V599.62l-112.464-62.9-127.81-255.56V64.787H62.9V842.85h148.442v62.9H0V1.888h1143.51v264.177l112.463 224.99 127.81 71.706zm-451.618 0h-480.55V842.85h480.55zm300.03-360.41H840.336V242.162h271.725v62.9H903.236v177.375h328.963z"/></svg>